# xmcd
#
# Track frame offsets: 
#        150
#        12487
#        33394
#        55456
#        78373
#        98765
#        116187
#        136289
#        160406
#        190828
#
# Disc length: 2749 seconds
#
# Revision: 0
# Processed by: cddbd v1.5.2PL0 Copyright (c) Steve Scherf et al.
# Submitted via: ExactAudioCopy v0.95a3
#
DISCID=840abb0a
DTITLE=Music Maker - Blues Revue Live 1 -REX
DYEAR=2010
DGENRE=Blues
TTITLE0=Dr. Burt - Ain't that loving You Baby
TTITLE1=Dr. Burt - What can an old man do but sing the Blues?
TTITLE2=Eddie Tigner - Route 66
TTITLE3=Eddie Tigner - I've had my fun
TTITLE4=Pat "Mother Blues" Cohen - You can have my husband
TTITLE5=Albert White - Hold on to your hiney
TTITLE6=Albert White - Stranded in St. Louis
TTITLE7=Pura Fe - Summertime
TTITLE8=Pura Fe - You still take
TTITLE9=Alabama Slim - Someday Baby
EXTD=
EXTT0=
EXTT1=
EXTT2=
EXTT3=
EXTT4=
EXTT5=
EXTT6=
EXTT7=
EXTT8=
EXTT9=
PLAYORDER=
